HIERARCHY
ROOT Hips
{
	OFFSET 0.00 0.00 0.00
	CHANNELS 6 Xposition Yposition Zposition Xrotation Yrotation Zrotation
	JOINT Spine
	{
		OFFSET 0.00000 1.15266 1.72900
		CHANNELS 3 Xrotation Yrotation Zrotation
		JOINT Spine1
		{
			OFFSET 0.00000 0.40032 2.27031
			CHANNELS 3 Xrotation Yrotation Zrotation
			JOINT Spine2
			{
				OFFSET 0.00000 0.20092 2.29656
				CHANNELS 3 Xrotation Yrotation Zrotation
				JOINT Spine3
				{
					OFFSET 0.00000 0.00000 2.30533
					CHANNELS 3 Xrotation Yrotation Zrotation
					JOINT Neck
					{
						OFFSET 0.00000 -0.86449 6.05149
						CHANNELS 3 Xrotation Yrotation Zrotation
						JOINT Head
						{
							OFFSET 0.00000 -0.55043 3.12167
							CHANNELS 3 Xrotation Yrotation Zrotation
							End Site
							{
								OFFSET 0.00000 0.00000 3.73175
							}
						}
					}
					JOINT RightShoulder
					{
						OFFSET -0.78828 -1.31380 4.25672
						CHANNELS 3 Xrotation Yrotation Zrotation
						JOINT RightArm
						{
							OFFSET -3.91513 0.00000 0.00000
							CHANNELS 3 Xrotation Yrotation Zrotation
							JOINT RightForeArm
							{
								OFFSET -6.91491 0.00000 0.00000
								CHANNELS 3 Xrotation Yrotation Zrotation
								JOINT RightHand
								{
									OFFSET -6.09622 0.00000 0.00000
									CHANNELS 3 Xrotation Yrotation Zrotation
									JOINT RightHandEnd
									{
										OFFSET -1.74995 0.00000 0.00000
										CHANNELS 3 Xrotation Yrotation Zrotation
										End Site
										{
											OFFSET -1.74995 0.00000 0.00000
										}
									}
									JOINT RightHandThumb1
									{
										OFFSET -0.69998 -1.16663 -0.46665
										CHANNELS 3 Yrotation Xrotation Zrotation
										End Site
										{
											OFFSET -1.69032 -0.45292 0.00000
										}
									}
								}
							}
						}
					}
					JOINT LeftShoulder
					{
						OFFSET 0.78828 -1.31380 4.25672
						CHANNELS 3 Xrotation Yrotation Zrotation
						JOINT LeftArm
						{
							OFFSET 3.91513 0.00000 0.00000
							CHANNELS 3 Xrotation Yrotation Zrotation
							JOINT LeftForeArm
							{
								OFFSET 6.91491 0.00000 0.00000
								CHANNELS 3 Xrotation Yrotation Zrotation
								JOINT LeftHand
								{
									OFFSET 6.09622 0.00000 0.00000
									CHANNELS 3 Xrotation Yrotation Zrotation
									JOINT LeftHandEnd
									{
										OFFSET 1.74995 0.00000 0.00000
										CHANNELS 3 Xrotation Yrotation Zrotation
										End Site
										{
											OFFSET 1.74995 0.00000 0.00000
										}
									}
									JOINT LeftHandThumb1
									{
										OFFSET 0.69998 -1.16663 -0.46665
										CHANNELS 3 Yrotation Xrotation Zrotation
										End Site
										{
											OFFSET 1.69032 -0.45292 0.00000
										}
									}
								}
							}
						}
					}
				}
			}
		}
	}
	JOINT RightUpLeg
	{
		OFFSET -2.33857 0.00000 -0.68318
		CHANNELS 3 Xrotation Yrotation Zrotation
		JOINT RightLeg
		{
			OFFSET 0.00000 0.00000 -10.74496
			CHANNELS 3 Xrotation Yrotation Zrotation
			JOINT RightFoot
			{
				OFFSET 0.00000 0.00000 -10.93085
				CHANNELS 3 Xrotation Yrotation Zrotation
				JOINT RightToeBase
				{
					OFFSET 0.00000 -4.08727 -1.48765
					CHANNELS 3 Xrotation Yrotation Zrotation
					End Site
					{
						OFFSET 0.00000 -1.89187 -0.00000
					}
				}
			}
		}
	}
	JOINT LeftUpLeg
	{
		OFFSET 2.33857 0.00000 -0.68318
		CHANNELS 3 Xrotation Yrotation Zrotation
		JOINT LeftLeg
		{
			OFFSET 0.00000 0.00000 -10.74496
			CHANNELS 3 Xrotation Yrotation Zrotation
			JOINT LeftFoot
			{
				OFFSET 0.00000 0.00000 -10.93085
				CHANNELS 3 Xrotation Yrotation Zrotation
				JOINT LeftToeBase
				{
					OFFSET 0.00000 -4.08727 -1.48765
					CHANNELS 3 Xrotation Yrotation Zrotation
					End Site
					{
						OFFSET 0.00000 -1.89187 -0.00000
					}
				}
			}
		}
	}
}
MOTION
Frames: 12
Frame Time: 0.008342
0.8184 11.3233 24.7664 -3.3203 -3.3065 120.8281 -2.2991 6.9644 -0.4969 -2.3227000000000007 5.8219 0.1673 15.094 -10.7194 -15.35 -0.2616 -3.1761000000000004 -3.2771000000000003 -11.0672 -6.498100000000001 1.5098000000000003 8.0862 -5.5506 6.0747 2.6205 -29.987400000000004 -2.7008 -23.403300000000005 -37.25030000000001 -15.616800000000001 0.0 0.0 21.0043 -20.0994 14.270600000000002 5.1851 0.0 0.0 -0.0 0.0 0.0 0.0 5.290800000000001 21.4855 -4.5749 37.8186 1.4032 -64.6346 -0.0 -0.0 -12.516200000000001 -8.636 -19.0981 -9.1018 0.0 -0.0 0.0 -0.0 -0.0 0.0 -4.3524 -7.0048 18.492 14.9887 0.0 0.0 -6.6969 0.0321 17.4477 5.1462 0.0 0.0 6.5141 -5.228400000000001 21.3723 14.9353 0.0 0.0 -16.9867 2.4787 17.342 -0.5534 0.0 -0.0 
0.65646390625 11.386529531250002 24.771096875 -3.1435410937500006 -3.055265 124.04217609375002 -2.68946078125 6.751331875000001 -0.31140171875000006 -2.57565 5.5479109375 0.24313156250000004 15.549093593750001 -10.67051828125 -13.345310625000002 -0.5074729687499999 -3.2431431250000005 -2.7018809375 -12.5540409375 -5.4269412500000005 -0.21540328125000002 8.3211796875 -4.201958125 3.3331479687500005 2.4106793750000004 -30.80688109375 -1.35080015625 -15.99027609375 -35.855868750000006 -7.436057031250001 0.0 0.0 25.15437390625 -16.919104843750002 15.11296546875 5.7093060937499995 -0.0 0.0 0.0 0.0 -0.0 0.0 5.466372656250001 23.102950156250003 -5.5420806250000005 35.356525625 2.2638759375 -60.75455234375 -0.0 -0.0 -14.924767343750002 -11.567747500000001 -19.47433078125 -10.38831140625 0.0 -0.0 0.0 0.0 0.0 0.0 -4.7161403125 -6.25041734375 16.465847187500003 14.997500625 0.0 0.0 -6.947698437500001 -0.10023328125000001 16.3356221875 5.197325312499999 0.0 0.0 6.954256093750001 -4.53252875 20.014837187500003 12.1918834375 0.0 0.0 -16.4906903125 2.20790890625 16.05851609375 -0.15256515625 0.0 -0.0 
0.44748499999999997 11.344418749999999 24.8020584375 -3.0808596875 -3.0396696875 130.76666906249997 -2.9406675 6.056042187499999 -0.1792059375 -2.7793065625 4.528491874999999 0.229621875 16.391690937499998 -9.134585625000001 -10.656854374999998 -0.5079 -2.97321 -1.9769656249999998 -14.307490312499999 -4.804786875 -3.8773050000000002 8.0720975 -3.5816184374999995 -1.3067740625000002 2.3418028125 -31.1716678125 0.055573125 -9.8067296875 -36.295688125000005 -2.7667696875 0.0 0.0 28.830121874999996 -14.994475 17.9429778125 5.3009246875 -0.0 0.0 -0.0 -0.0 -0.0 0.0 5.358277187500001 22.020360625 -7.4387771874999995 37.3559734375 0.8131381249999999 -60.178436875 -0.0 -0.0 -13.513388749999999 -12.67848125 -18.806030937499997 -9.024936875 0.0 0.0 0.0 0.0 0.0 0.0 -4.17995 -5.5593940625 12.746358125 13.229624999999999 0.0 0.0 -6.56804 0.0415259375 13.5169590625 5.19758 0.0 0.0 6.257793437499999 -4.93764 17.586976874999998 10.3373165625 0.0 0.0 -15.6944684375 2.1075381249999996 12.569019062499999 0.40255312499999996 0.0 0.0 
0.22302203125 11.27607546875 24.84400984375 -2.51274671875 -2.8588228125 139.32612953125 -2.67206796875 5.50068984375 -0.06644125000000001 -2.6563464062500004 3.608285625 0.20166703125 16.93392109375 -7.127076874999999 -8.19416421875 -0.61462046875 -2.74764234375 -1.46079046875 -15.841791718749999 -4.3215421874999995 -7.77656546875 7.453438125 -2.98458703125 -6.867880625 2.75684234375 -30.015092656249998 1.6285606250000002 -5.123225 -38.97516656249999 1.48410796875 0.0 0.0 28.7857115625 -12.14312890625 18.97001453125 5.382477656250001 0.0 0.0 -0.0 0.0 -0.0 0.0 6.216005625 22.133541562500003 -8.397839375 40.36577968750001 0.23319703125 -59.14891859375 -0.0 -0.0 -11.914074687500001 -14.56091546875 -17.27640265625 -8.95514296875 0.0 0.0 0.0 0.0 0.0 0.0 -3.3921003125 -4.4899884375 8.74442515625 11.719388125 0.0 0.0 -6.40771609375 0.0938625 9.237799375 5.07693703125 0.0 0.0 5.38013625 -5.034723437499999 13.673064687499998 8.46330765625 0.0 0.0 -14.265699531249998 2.333385 8.300695937499999 0.80739265625 0.0 0.0 
0.015740625 11.16695625 24.88125625 -1.9143375 -2.110209375 146.321703125 -2.1337312500000003 5.495887499999999 0.11834375 -2.5021562499999996 3.067290625 0.247934375 16.93876875 -5.500525 -5.531115625 -0.699934375 -2.7917031249999997 -0.8599531250000001 -16.88165 -3.591184375 -10.805925 6.8026 -2.5303062499999998 -11.845984374999999 3.3778656249999996 -28.72253125 3.17031875 0.5762625 -40.529334375 5.826549999999999 0.0 0.0 30.742778124999997 -12.740446875 19.178553125 5.9094625 -0.0 0.0 -0.0 0.0 -0.0 0.0 7.382234375 22.579253125 -8.92269375 44.619696875 2.0374375000000002 -56.860343750000006 -0.0 -0.0 -9.952928125 -17.3149625 -15.920334375000001 -7.87236875 0.0 0.0 0.0 0.0 -0.0 0.0 -3.6120625 -3.189715625 5.2244062499999995 11.75119375 0.0 0.0 -6.710271875 0.025571875 5.855640625 5.150609375 0.0 0.0 4.558575 -4.391018750000001 8.78580625 6.498578125 0.0 0.0 -12.379903125 2.825121875 6.0830343749999995 0.49345312500000005 0.0 0.0 
-0.08787015625000001 11.1259446875 24.922321250000003 -1.6217054687500003 -2.2231840625 152.0579346875 -1.73233546875 4.92613078125 0.239116875 -2.3708325 2.46151 0.270263125 16.953648125 -4.3148225 -3.4153981250000003 -0.6310921875000001 -2.6252584375000003 -0.40495078125 -17.080645 -2.8226926562499997 -12.840741875 6.1672328125 -1.84406671875 -15.405041406250001 3.4857753125 -27.783922500000003 3.9007753125 4.39017875 -42.181099375 9.800466875000001 0.0 0.0 31.0288690625 -11.28925921875 20.12282796875 5.47787953125 -0.0 0.0 -0.0 0.0 -0.0 -0.0 7.896046093750001 22.044740625000003 -8.05629859375 51.852763749999994 4.8323453125 -54.933686875 -0.0 -0.0 -6.7373467187500005 -21.38972828125 -14.90151046875 -7.0955467187500005 0.0 0.0 0.0 0.0 -0.0 0.0 -1.8372648437499999 -2.8506721875 2.5651012499999997 9.06719953125 0.0 0.0 -5.87306328125 -0.30144374999999995 2.88138875 5.158189375 0.0 0.0 4.45859484375 -4.64533265625 5.57401328125 4.7891759375 0.0 0.0 -10.86513125 3.084510625 3.59747828125 0.5655964062500001 0.0 0.0 
-0.11391812500000001 11.143507500000002 24.936699687500003 -1.8770146875 -2.4868778125 154.01813531250002 -2.049291875 3.9113846875 0.40621187500000006 -2.6329459375 1.6707612500000002 0.2919990625 17.152043125 -2.9938303125 -0.6154428125 -0.5613684375 -2.198915625 0.0864646875 -16.32618875 -1.6767115625000002 -13.41672875 5.24595875 -1.334081875 -18.25696 4.496163125000001 -27.721911875000004 4.5141746875 7.260259375 -42.032114375000006 11.705445625000001 0.0 0.0 30.623324062500004 -12.0930109375 19.8687875 6.3519584375 0.0 0.0 -0.0 0.0 -0.0 0.0 6.9387515625 24.8781615625 -6.06538875 48.1598284375 15.339774375 -48.577881250000004 -0.0 -0.0 -7.7985834375000005 -24.158147500000002 -14.76764875 -6.36184125 0.0 -0.0 0.0 -0.0 0.0 0.0 -0.0963325 -3.0462815625 0.6470606250000001 5.62259 0.0 0.0 -4.5360746875 -0.37266187500000003 2.8685421875 5.5701181250000005 0.0 0.0 3.9757896875000003 -5.0762175 4.2979246875 4.800088125 0.0 0.0 -10.727899062500002 2.8945446875000007 2.9355378125000002 0.5411125000000001 0.0 0.0 
-0.111006875 11.201953437499999 24.947289062499998 -1.67405265625 -2.5316175 153.66120843750002 -2.27598140625 3.12493015625 0.5057684375 -2.7146696875 1.09913359375 0.29272953125 17.2777253125 -1.601370625 1.35058359375 -0.35306328124999997 -1.69870953125 0.3599040625 -15.68080671875 -0.96922140625 -13.238868125 4.538548593750001 -1.087839375 -19.677517187499998 6.19419859375 -26.980481718749996 5.395897343749999 10.87895328125 -42.51764703124999 13.83579078125 0.0 0.0 29.480107499999995 -13.704201874999999 19.567489062499998 6.34365 0.0 -0.0 0.0 0.0 -0.0 0.0 5.856804374999999 28.174721875 -4.53147546875 35.58736390625 25.65206703125 -38.988081718749996 -0.0 -0.0 -11.57216875 -23.17778515625 -14.783919687500001 -6.699378437499999 0.0 -0.0 0.0 0.0 -0.0 0.0 0.8923585937499999 -2.8208090625 -1.5959790624999999 4.27526421875 0.0 0.0 -3.8719034375 -0.54112984375 5.4449260937499995 5.8397765625 0.0 0.0 4.3313123437500005 -4.866492031249999 3.45550921875 4.82580578125 0.0 0.0 -10.61627453125 2.5730945312499998 4.183041875 0.5478359375 0.0 0.0 
-0.15325125 11.16237125 24.957178749999997 -1.926295 -2.34245 153.385715 -2.1573474999999998 3.0356324999999997 0.45855250000000003 -2.6295699999999997 1.09613625 0.28396375 16.863161249999997 -1.6147237499999998 1.1863750000000002 -0.29344625 -1.577455 0.30475 -15.626459999999998 -0.33518125 -12.97162125 4.02013125 -0.9084662499999999 -19.438565 6.62747875 -26.850625 5.35844125 11.661301250000001 -43.5322775 13.765402499999999 0.0 0.0 27.9737875 -14.6003625 20.267565 5.67401375 0.0 0.0 0.0 -0.0 0.0 0.0 5.56563375 27.50141875 -4.7528225 34.62489625 27.411162499999996 -39.170973749999995 -0.0 -0.0 -11.466822500000001 -22.795827499999998 -14.945485000000001 -7.27292875 0.0 0.0 -0.0 0.0 0.0 0.0 0.54088125 -2.6889574999999994 -1.8600712499999998 4.01128 0.0 0.0 -3.50998625 -0.6437775 5.955225 5.844212500000001 0.0 0.0 3.81109375 -4.70858625 3.3630762499999998 5.0265775 0.0 0.0 -10.522258749999999 2.3277 4.5198475 0.65268625 0.0 0.0 
-0.2404859375 11.097185937499999 24.9663859375 -2.1338703125 -2.2577953125 152.0193546875 -1.79897734375 3.2513234374999995 0.37168359375000004 -2.4319671875 1.26489609375 0.24347265625000003 16.532947656250002 -2.2956773437500004 0.31531015625 -0.39324140625 -1.64063203125 0.11470937499999999 -16.062195312500002 0.32579921875 -12.0885234375 3.54342265625 -0.7055828125 -18.0966359375 7.09459921875 -27.185274218750003 5.244147656250001 10.288685156249999 -43.713827343750005 12.0326625 0.0 0.0 27.7499046875 -15.68278203125 20.772384374999998 5.1534710937499995 0.0 0.0 0.0 0.0 0.0 0.0 5.92052734375 26.4901921875 -5.05351484375 35.23979453125 27.4109234375 -41.1959 -0.0 -0.0 -10.953309375 -23.310503125 -16.682920312500002 -7.971821875 0.0 -0.0 0.0 -0.0 0.0 0.0 0.4084890625 -2.5544671875 -1.64494140625 3.13591015625 0.0 0.0 -2.7050671875 -0.76042109375 7.082373437499999 5.87648359375 0.0 0.0 3.96078203125 -4.45550390625 3.5527796874999997 4.270590625 0.0 0.0 -10.15994765625 2.153484375 5.647257031250001 0.4545859375 0.0 0.0 
-0.44651281249999997 10.914975312500001 24.97413375 -2.9342937499999997 -1.7404690625 148.66606875000002 -1.4186975000000002 3.342901875 0.246869375 -2.2933428125 1.32730625 0.19589031250000002 15.911096562500001 -2.8019762500000005 -0.3049284375 -0.6580043750000001 -1.6078296875000002 -0.05394375 -16.740448750000002 1.1690784375 -10.447526875 2.9840071875000005 -0.5392746875000001 -16.1302284375 7.1860040625 -26.862613749999998 5.4171959375 9.734587187499999 -43.595723125 10.8400025 0.0 0.0 27.9677975 -16.183683125 21.763268749999998 4.3020946875 0.0 -0.0 -0.0 -0.0 -0.0 0.0 6.3028675 25.45667625 -5.4630534375 35.80689375 27.101563125 -43.963331875 -0.0 -0.0 -10.270822500000001 -21.5895034375 -19.564493125 -8.325841875 0.0 0.0 -0.0 0.0 0.0 -0.0 -1.4952678125 -2.2554709375 0.13986843750000003 3.1864159375 0.0 0.0 -1.806259375 -0.9548984374999999 8.536115625 5.934120625 0.0 0.0 2.862980625 -3.9239303125 5.505579375000001 4.3385771875 0.0 0.0 -10.0941978125 1.5585715624999998 6.82418125 0.5151559375 0.0 0.0 
-0.634424375 10.78283171875 24.9784496875 -3.4261464062500004 -1.25760078125 145.66273968750002 -1.195773125 3.2266726562500003 0.1390209375 -2.184135625 1.2850196875000002 0.15767765625 15.5120615625 -2.8245231250000002 -0.60626671875 -0.83981234375 -1.46437375 -0.16828359375000002 -17.2444459375 1.83678671875 -9.107276406250001 2.708816875 -0.19215906250000003 -14.52719328125 6.9819509375 -26.04460328125 5.61562140625 10.505575468750001 -44.3546496875 10.805422656250002 0.0 0.0 27.812247187500002 -15.782980937500001 25.16709546875 3.0987984375 0.0 0.0 0.0 0.0 -0.0 0.0 6.2470946875 24.39204296875 -5.93583 37.11800609375 26.200000156250002 -47.974705 -0.0 -0.0 -8.85462515625 -20.3402025 -21.95082 -10.5894896875 0.0 -0.0 0.0 -0.0 -0.0 0.0 -2.81698140625 -1.9147717187500002 1.0356265625 2.93360640625 0.0 0.0 -0.8613906250000001 -1.3343298437500002 10.6030540625 5.988063125 0.0 0.0 2.10900421875 -3.41961875 8.33244921875 4.391291718750001 0.0 0.0 -9.99117625 1.24503671875 6.8923626562499996 0.50502359375 0.0 0.0 
